<svg width="185" height="54" viewBox="0 0 185 54" fill="none" xmlns="http://www.w3.org/2000/svg">
<path d="M81.375 36.75H90.5C90.5417 38.5625 91.1042 40.0104 92.1875 41.0938C93.2917 42.1771 94.75 42.7188 96.5625 42.7188C98.5 42.7188 99.9792 42.1458 101 41C102.042 39.8333 102.562 38.1458 102.562 35.9375V4.90625H112V36C112 40.8333 110.646 44.5729 107.938 47.2188C105.25 49.8438 101.5 51.1562 96.6875 51.1562C92.0417 51.1562 88.3229 49.8542 85.5312 47.25C82.7604 44.6458 81.375 41.1458 81.375 36.75ZM131.719 50H122.969V4.90625H134.094L146.562 35.2188H147.125L159.625 4.90625H170.719V50H161.969V19.8438H161.469L150 47.4062H143.719L132.219 19.8438H131.719V50Z" fill="#CCD6F6"/>
<mask id="path-2-inside-1_21_9" fill="white">
<path fill-rule="evenodd" clip-rule="evenodd" d="M79 1H0V54H79V1ZM43.7291 16.36L36.4091 44.48C36.1957 44.5067 35.9824 44.52 35.7691 44.52C35.5824 44.5467 35.3691 44.56 35.1291 44.56C34.4624 44.56 33.9557 44.4 33.6091 44.08C33.2624 43.7867 33.0891 43.3333 33.0891 42.72C33.0891 42.32 33.1557 41.88 33.2891 41.4C33.4224 40.92 33.5291 40.52 33.6091 40.2L40.8891 12.08C41.1291 12.0533 41.3557 12.04 41.5691 12.04C41.7824 12.0133 41.9824 12 42.1691 12C42.7824 12 43.2757 12.1467 43.6491 12.44C44.0224 12.7067 44.2091 13.16 44.2091 13.8C44.2091 14.2 44.1557 14.6267 44.0491 15.08L43.7291 16.36ZM47.3834 38.6604C47.3834 39.6137 47.7501 40.0904 48.4834 40.0904C48.7768 40.0904 49.0518 40.0354 49.3084 39.9254L71.9134 30.3554C72.7568 29.9887 73.1784 29.347 73.1784 28.4304V27.4953C73.1784 26.5787 72.7568 25.937 71.9134 25.5704L49.3084 16.0003C49.1618 15.927 49.0151 15.8904 48.8684 15.8904C48.7584 15.8537 48.6301 15.8354 48.4834 15.8354C47.7501 15.8354 47.3834 16.312 47.3834 17.2654V18.0354C47.3834 18.512 47.4751 18.9154 47.6584 19.2453C47.8784 19.5387 48.2084 19.777 48.6484 19.9604L68.2284 27.9354L48.6484 35.9654C48.2084 36.1487 47.8784 36.4054 47.6584 36.7354C47.4751 37.0287 47.3834 37.4137 47.3834 37.8904V38.6604ZM31.7516 38.8709C31.7516 39.8242 31.385 40.3009 30.6516 40.3009C30.395 40.3009 30.12 40.2459 29.8266 40.1359L7.22162 30.5659C6.37829 30.1992 5.95662 29.5575 5.95662 28.6409V27.7059C5.95662 26.7892 6.37829 26.1475 7.22162 25.7809L29.8266 16.2109C29.9733 16.1375 30.1016 16.1009 30.2116 16.1009C30.3583 16.0642 30.505 16.0459 30.6516 16.0459C31.385 16.0459 31.7516 16.5225 31.7516 17.4759V18.2459C31.7516 18.7225 31.6416 19.1259 31.4216 19.4559C31.2383 19.7492 30.9266 19.9875 30.4866 20.1709L10.9066 28.1459L30.4866 36.1759C30.9266 36.3592 31.2383 36.6159 31.4216 36.9459C31.6416 37.2392 31.7516 37.6242 31.7516 38.1009V38.8709Z"/>
</mask>
<path fill-rule="evenodd" clip-rule="evenodd" d="M79 1H0V54H79V1ZM43.7291 16.36L36.4091 44.48C36.1957 44.5067 35.9824 44.52 35.7691 44.52C35.5824 44.5467 35.3691 44.56 35.1291 44.56C34.4624 44.56 33.9557 44.4 33.6091 44.08C33.2624 43.7867 33.0891 43.3333 33.0891 42.72C33.0891 42.32 33.1557 41.88 33.2891 41.4C33.4224 40.92 33.5291 40.52 33.6091 40.2L40.8891 12.08C41.1291 12.0533 41.3557 12.04 41.5691 12.04C41.7824 12.0133 41.9824 12 42.1691 12C42.7824 12 43.2757 12.1467 43.6491 12.44C44.0224 12.7067 44.2091 13.16 44.2091 13.8C44.2091 14.2 44.1557 14.6267 44.0491 15.08L43.7291 16.36ZM47.3834 38.6604C47.3834 39.6137 47.7501 40.0904 48.4834 40.0904C48.7768 40.0904 49.0518 40.0354 49.3084 39.9254L71.9134 30.3554C72.7568 29.9887 73.1784 29.347 73.1784 28.4304V27.4953C73.1784 26.5787 72.7568 25.937 71.9134 25.5704L49.3084 16.0003C49.1618 15.927 49.0151 15.8904 48.8684 15.8904C48.7584 15.8537 48.6301 15.8354 48.4834 15.8354C47.7501 15.8354 47.3834 16.312 47.3834 17.2654V18.0354C47.3834 18.512 47.4751 18.9154 47.6584 19.2453C47.8784 19.5387 48.2084 19.777 48.6484 19.9604L68.2284 27.9354L48.6484 35.9654C48.2084 36.1487 47.8784 36.4054 47.6584 36.7354C47.4751 37.0287 47.3834 37.4137 47.3834 37.8904V38.6604ZM31.7516 38.8709C31.7516 39.8242 31.385 40.3009 30.6516 40.3009C30.395 40.3009 30.12 40.2459 29.8266 40.1359L7.22162 30.5659C6.37829 30.1992 5.95662 29.5575 5.95662 28.6409V27.7059C5.95662 26.7892 6.37829 26.1475 7.22162 25.7809L29.8266 16.2109C29.9733 16.1375 30.1016 16.1009 30.2116 16.1009C30.3583 16.0642 30.505 16.0459 30.6516 16.0459C31.385 16.0459 31.7516 16.5225 31.7516 17.4759V18.2459C31.7516 18.7225 31.6416 19.1259 31.4216 19.4559C31.2383 19.7492 30.9266 19.9875 30.4866 20.1709L10.9066 28.1459L30.4866 36.1759C30.9266 36.3592 31.2383 36.6159 31.4216 36.9459C31.6416 37.2392 31.7516 37.6242 31.7516 38.1009V38.8709Z" fill="#CCD6F6"/>
<path d="M0 1V0H-1V1H0ZM79 1H80V0H79V1ZM0 54H-1V55H0V54ZM79 54V55H80V54H79ZM36.4091 44.48L36.5331 45.4723L37.206 45.3882L37.3768 44.7319L36.4091 44.48ZM43.7291 16.36L44.6969 16.6119L44.6992 16.6025L43.7291 16.36ZM35.7691 44.52V43.52H35.698L35.6276 43.5301L35.7691 44.52ZM33.6091 44.08L34.2873 43.3452L34.2715 43.3306L34.255 43.3166L33.6091 44.08ZM33.2891 41.4L32.3255 41.1324L32.3255 41.1324L33.2891 41.4ZM33.6091 40.2L32.6409 39.9494L32.6389 39.9575L33.6091 40.2ZM40.8891 12.08L40.7786 11.0861L40.0937 11.1622L39.921 11.8294L40.8891 12.08ZM41.5691 12.04V13.04H41.6313L41.6931 13.0323L41.5691 12.04ZM43.6491 12.44L43.0312 13.2263L43.0492 13.2404L43.0678 13.2537L43.6491 12.44ZM44.0491 15.08L45.0193 15.3226L45.0225 15.309L44.0491 15.08ZM49.3084 39.9254L48.9186 39.0045L48.9145 39.0062L49.3084 39.9254ZM71.9134 30.3554L72.3033 31.2763L72.3122 31.2724L71.9134 30.3554ZM71.9134 25.5704L72.3122 24.6532L72.3033 24.6495L71.9134 25.5704ZM49.3084 16.0003L48.8612 16.8948L48.8895 16.9089L48.9186 16.9212L49.3084 16.0003ZM48.8684 15.8904L48.5522 16.839L48.7062 16.8904H48.8684V15.8904ZM47.6584 19.2453L46.7843 19.731L46.8175 19.7907L46.8584 19.8453L47.6584 19.2453ZM48.6484 19.9604L48.2638 20.8835L48.2712 20.8865L48.6484 19.9604ZM68.2284 27.9354L68.6079 28.8606L70.8716 27.9322L68.6057 27.0092L68.2284 27.9354ZM48.6484 35.9654L48.269 35.0401L48.2638 35.0423L48.6484 35.9654ZM47.6584 36.7354L46.8264 36.1806L46.8182 36.1929L46.8104 36.2054L47.6584 36.7354ZM29.8266 40.1359L29.4368 41.0568L29.456 41.0649L29.4755 41.0722L29.8266 40.1359ZM7.22162 30.5659L6.82288 31.483L6.83176 31.4868L7.22162 30.5659ZM7.22162 25.7809L6.83174 24.86L6.82289 24.8638L7.22162 25.7809ZM29.8266 16.2109L30.2165 17.1317L30.2456 17.1194L30.2738 17.1053L29.8266 16.2109ZM30.2116 16.1009V17.1009H30.3347L30.4542 17.071L30.2116 16.1009ZM31.4216 19.4559L30.5896 18.9012L30.5814 18.9134L30.5736 18.9259L31.4216 19.4559ZM30.4866 20.1709L30.8638 21.097L30.8712 21.094L30.4866 20.1709ZM10.9066 28.1459L10.5294 27.2198L8.26342 28.1427L10.5272 29.0711L10.9066 28.1459ZM30.4866 36.1759L30.8712 35.2528L30.8661 35.2507L30.4866 36.1759ZM31.4216 36.9459L30.5475 37.4315L30.5806 37.4912L30.6216 37.5459L31.4216 36.9459ZM0 2H79V0H0V2ZM1 54V1H-1V54H1ZM79 53H0V55H79V53ZM78 1V54H80V1H78ZM37.3768 44.7319L44.6968 16.6119L42.7613 16.1081L35.4413 44.2281L37.3768 44.7319ZM35.7691 45.52C36.0242 45.52 36.2789 45.504 36.5331 45.4723L36.285 43.4877C36.1125 43.5093 35.9406 43.52 35.7691 43.52V45.52ZM35.1291 45.56C35.4043 45.56 35.6664 45.5448 35.9105 45.5099L35.6276 43.5301C35.4984 43.5485 35.3338 43.56 35.1291 43.56V45.56ZM32.9308 44.8148C33.5264 45.3646 34.3148 45.56 35.1291 45.56V43.56C34.61 43.56 34.385 43.4354 34.2873 43.3452L32.9308 44.8148ZM32.0891 42.72C32.0891 43.5185 32.3202 44.2994 32.9631 44.8434L34.255 43.3166C34.2046 43.2739 34.0891 43.1482 34.0891 42.72H32.0891ZM32.3255 41.1324C32.1737 41.6791 32.0891 42.2106 32.0891 42.72H34.0891C34.0891 42.4294 34.1378 42.0809 34.2526 41.6676L32.3255 41.1324ZM32.6389 39.9575C32.5618 40.266 32.4576 40.657 32.3255 41.1324L34.2526 41.6676C34.3872 41.183 34.4963 40.774 34.5792 40.4425L32.6389 39.9575ZM39.921 11.8294L32.641 39.9494L34.5771 40.4506L41.8571 12.3306L39.921 11.8294ZM41.5691 11.04C41.3144 11.04 41.0506 11.0559 40.7786 11.0861L40.9995 13.0739C41.2075 13.0508 41.3971 13.04 41.5691 13.04V11.04ZM42.1691 11C41.9353 11 41.6935 11.0167 41.445 11.0477L41.6931 13.0323C41.8713 13.01 42.0295 13 42.1691 13V11ZM44.2669 11.6537C43.6717 11.186 42.9404 11 42.1691 11V13C42.6244 13 42.8798 13.1073 43.0312 13.2263L44.2669 11.6537ZM45.2091 13.8C45.2091 12.9743 44.9611 12.1483 44.2303 11.6263L43.0678 13.2537C43.0837 13.265 43.2091 13.3457 43.2091 13.8H45.2091ZM45.0225 15.309C45.144 14.7926 45.2091 14.2885 45.2091 13.8H43.2091C43.2091 14.1115 43.1675 14.4607 43.0756 14.851L45.0225 15.309ZM44.6992 16.6025L45.0192 15.3225L43.0789 14.8375L42.7589 16.1175L44.6992 16.6025ZM48.4834 39.0904C48.4071 39.0904 48.3871 39.0779 48.3998 39.0834C48.4185 39.0915 48.4397 39.1083 48.4511 39.1231C48.4584 39.1327 48.4405 39.1142 48.4209 39.0376C48.4008 38.9596 48.3834 38.8378 48.3834 38.6604H46.3834C46.3834 39.2372 46.4895 39.8534 46.8658 40.3426C47.2803 40.8814 47.8821 41.0904 48.4834 41.0904V39.0904ZM48.9145 39.0062C48.7886 39.0602 48.6483 39.0904 48.4834 39.0904V41.0904C48.9052 41.0904 49.315 41.0105 49.7024 40.8445L48.9145 39.0062ZM71.5236 29.4345L48.9186 39.0045L49.6983 40.8462L72.3033 31.2762L71.5236 29.4345ZM72.1784 28.4304C72.1784 28.7319 72.1108 28.9216 72.0265 29.0499C71.942 29.1785 71.7938 29.3169 71.5147 29.4383L72.3122 31.2724C72.8764 31.0271 73.3607 30.6614 73.6979 30.1483C74.0352 29.635 74.1784 29.0455 74.1784 28.4304H72.1784ZM72.1784 27.4953V28.4304H74.1784V27.4953H72.1784ZM71.5147 26.4874C71.7938 26.6088 71.942 26.7472 72.0265 26.8758C72.1108 27.0041 72.1784 27.1938 72.1784 27.4953H74.1784C74.1784 26.8802 74.0352 26.2907 73.6979 25.7774C73.3607 25.2643 72.8764 24.8986 72.3122 24.6533L71.5147 26.4874ZM48.9186 16.9212L71.5236 26.4912L72.3033 24.6495L49.6983 15.0795L48.9186 16.9212ZM48.8684 16.8904C48.8633 16.8904 48.8586 16.89 48.8544 16.8895C48.8503 16.889 48.8474 16.8884 48.8459 16.888C48.8428 16.8872 48.8477 16.888 48.8612 16.8948L49.7557 15.1059C49.4867 14.9714 49.1879 14.8904 48.8684 14.8904V16.8904ZM48.4834 16.8354C48.5497 16.8354 48.5671 16.844 48.5522 16.839L49.1847 14.9417C48.9498 14.8634 48.7105 14.8354 48.4834 14.8354V16.8354ZM48.3834 17.2654C48.3834 17.0879 48.4008 16.9661 48.4209 16.8881C48.4405 16.8115 48.4584 16.793 48.4511 16.8026C48.4397 16.8174 48.4185 16.8342 48.3998 16.8423C48.3871 16.8478 48.4071 16.8354 48.4834 16.8354V14.8354C47.8821 14.8354 47.2803 15.0443 46.8658 15.5831C46.4895 16.0723 46.3834 16.6885 46.3834 17.2654H48.3834ZM48.3834 18.0354V17.2654H46.3834V18.0354H48.3834ZM48.5326 18.7597C48.4507 18.6124 48.3834 18.3859 48.3834 18.0354H46.3834C46.3834 18.6381 46.4995 19.2183 46.7843 19.731L48.5326 18.7597ZM49.0331 19.0373C48.7096 18.9025 48.5438 18.7591 48.4584 18.6453L46.8584 19.8453C47.2131 20.3183 47.7073 20.6515 48.2638 20.8834L49.0331 19.0373ZM68.6057 27.0092L49.0257 19.0342L48.2712 20.8865L67.8512 28.8615L68.6057 27.0092ZM49.0279 36.8906L68.6079 28.8606L67.849 27.0101L48.269 35.0401L49.0279 36.8906ZM48.4905 37.2901C48.5805 37.155 48.738 37.0114 49.0331 36.8884L48.2638 35.0423C47.6789 35.286 47.1764 35.6557 46.8264 36.1806L48.4905 37.2901ZM48.3834 37.8904C48.3834 37.5329 48.4533 37.3504 48.5064 37.2654L46.8104 36.2054C46.497 36.7069 46.3834 37.2944 46.3834 37.8904H48.3834ZM48.3834 38.6604V37.8904H46.3834V38.6604H48.3834ZM30.6516 41.3009C31.2529 41.3009 31.8547 41.092 32.2692 40.5531C32.6455 40.0639 32.7516 39.4477 32.7516 38.8709H30.7516C30.7516 39.0484 30.7342 39.1701 30.7142 39.2481C30.6946 39.3248 30.6766 39.3432 30.684 39.3337C30.6954 39.3188 30.7166 39.302 30.7353 39.2939C30.748 39.2884 30.728 39.3009 30.6516 39.3009V41.3009ZM29.4755 41.0722C29.8571 41.2153 30.2519 41.3009 30.6516 41.3009V39.3009C30.5381 39.3009 30.3828 39.2764 30.1777 39.1995L29.4755 41.0722ZM6.83176 31.4868L29.4368 41.0568L30.2165 39.215L7.61148 29.645L6.83176 31.4868ZM4.95662 28.6409C4.95662 29.256 5.09984 29.8455 5.43716 30.3588C5.77435 30.8719 6.25863 31.2376 6.8229 31.4829L7.62035 29.6488C7.34128 29.5275 7.19306 29.389 7.10857 29.2604C7.02423 29.1321 6.95662 28.9424 6.95662 28.6409H4.95662ZM4.95662 27.7059V28.6409H6.95662V27.7059H4.95662ZM6.82289 24.8638C6.25863 25.1091 5.77434 25.4748 5.43716 25.9879C5.09984 26.5013 4.95662 27.0908 4.95662 27.7059H6.95662C6.95662 27.4043 7.02423 27.2147 7.10857 27.0863C7.19306 26.9577 7.34128 26.8193 7.62035 26.6979L6.82289 24.8638ZM29.4368 15.29L6.83176 24.86L7.61148 26.7018L30.2165 17.1317L29.4368 15.29ZM30.2116 15.1009C29.889 15.1009 29.6024 15.205 29.3794 15.3164L30.2738 17.1053C30.3039 17.0903 30.3145 17.0879 30.3076 17.0899C30.3007 17.0919 30.2668 17.1009 30.2116 17.1009V15.1009ZM30.6516 15.0459C30.4207 15.0459 30.1926 15.0748 29.9691 15.1307L30.4542 17.071C30.524 17.0536 30.5892 17.0459 30.6516 17.0459V15.0459ZM32.7516 17.4759C32.7516 16.899 32.6455 16.2828 32.2692 15.7937C31.8547 15.2548 31.2529 15.0459 30.6516 15.0459V17.0459C30.728 17.0459 30.748 17.0583 30.7353 17.0528C30.7166 17.0447 30.6954 17.0279 30.684 17.0131C30.6766 17.0035 30.6946 17.022 30.7142 17.0986C30.7342 17.1767 30.7516 17.2984 30.7516 17.4759H32.7516ZM32.7516 18.2459V17.4759H30.7516V18.2459H32.7516ZM32.2537 20.0106C32.6036 19.4856 32.7516 18.8795 32.7516 18.2459H30.7516C30.7516 18.5655 30.6796 18.7661 30.5896 18.9012L32.2537 20.0106ZM30.8712 21.094C31.4321 20.8602 31.9418 20.5104 32.2696 19.9859L30.5736 18.9259C30.5348 18.988 30.4211 19.1148 30.102 19.2478L30.8712 21.094ZM11.2838 29.072L30.8638 21.097L30.1094 19.2448L10.5294 27.2198L11.2838 29.072ZM30.8661 35.2507L11.2861 27.2207L10.5272 29.0711L30.1072 37.1011L30.8661 35.2507ZM32.2958 36.4602C31.9771 35.8866 31.4634 35.4995 30.8712 35.2528L30.102 37.099C30.3898 37.2189 30.4995 37.3451 30.5475 37.4315L32.2958 36.4602ZM32.7516 38.1009C32.7516 37.4729 32.6057 36.858 32.2216 36.3459L30.6216 37.5459C30.6776 37.6205 30.7516 37.7756 30.7516 38.1009H32.7516ZM32.7516 38.8709V38.1009H30.7516V38.8709H32.7516Z" fill="#CCD6F6" mask="url(#path-2-inside-1_21_9)"/>
</svg>
